HIERARCHY
ROOT root
{
	OFFSET	0	13.1	24.9
	CHANNELS 6  Xposition Yposition Zposition Xrotation Yrotation Zrotation
	JOINT spine_1
	{
		OFFSET	0	9.99999	0
		CHANNELS 3  Xrotation Yrotation Zrotation
		JOINT spine_2
		{
			OFFSET	0	112	-10
			CHANNELS 3  Xrotation Yrotation Zrotation
			JOINT spine_3
			{
				OFFSET	0	206.5	19.3
				CHANNELS 3  Xrotation Yrotation Zrotation
				JOINT spine_4
				{
					OFFSET	0	110.4	14.6
					CHANNELS 3  Xrotation Yrotation Zrotation
					JOINT neck_1
					{
						OFFSET	0	71.8	-50.3
						CHANNELS 3  Xrotation Yrotation Zrotation
						JOINT neck_2
						{
							OFFSET	0	86.2	-25.8
							CHANNELS 3  Xrotation Yrotation Zrotation
							JOINT head_ee
							{
								OFFSET	0	179.8	-8.7
								CHANNELS 3  Xrotation Yrotation Zrotation
								End Site
								{
									OFFSET	1	0	0
								}
							}
						}
					}
					JOINT left_clavicle
					{
						OFFSET	-43.2	22.4	-70.8
						CHANNELS 3  Xrotation Yrotation Zrotation
						JOINT left_shoulder
						{
							OFFSET	-93.9	-5.79999	48.7
							CHANNELS 3  Xrotation Yrotation Zrotation
							JOINT left_elbow
							{
								OFFSET	-291.4	-30.8	15.2
								CHANNELS 3  Xrotation Yrotation Zrotation
								JOINT left_lowarm_twist
								{
									OFFSET	-110.7	-3.89999	13.6
									CHANNELS 3  Xrotation Yrotation Zrotation
									JOINT left_hand
									{
										OFFSET	-110.7	-3.89999	13.6
										CHANNELS 3  Xrotation Yrotation Zrotation
										JOINT left_ee
										{
											OFFSET	-80.8	-5.10001	12.1
											CHANNELS 3  Xrotation Yrotation Zrotation
											End Site
											{
												OFFSET	1	0	0
											}
										}
									}
								}
							}
						}
					}
					JOINT right_clavicle
					{
						OFFSET	43.2	22.4	-70.8
						CHANNELS 3  Xrotation Yrotation Zrotation
						JOINT right_shoulder
						{
							OFFSET	93.9	-5.79999	48.7
							CHANNELS 3  Xrotation Yrotation Zrotation
							JOINT right_elbow
							{
								OFFSET	291.4	-30.8	15.2
								CHANNELS 3  Xrotation Yrotation Zrotation
								JOINT right_lowarm_twist
								{
									OFFSET	110.7	-3.89999	13.6
									CHANNELS 3  Xrotation Yrotation Zrotation
									JOINT right_hand
									{
										OFFSET	110.7	-3.89999	13.6
										CHANNELS 3  Xrotation Yrotation Zrotation
										JOINT right_ee
										{
											OFFSET	80.8	-5.10001	12.1
											CHANNELS 3  Xrotation Yrotation Zrotation
											End Site
											{
												OFFSET	1	0	0
											}
										}
									}
								}
							}
						}
					}
				}
			}
		}
	}
	JOINT left_hip
	{
		OFFSET	-82.8	-127.5	0.300001
		CHANNELS 3  Xrotation Yrotation Zrotation
		JOINT left_knee
		{
			OFFSET	-28.2	-396.7	2.2
			CHANNELS 3  Xrotation Yrotation Zrotation
			JOINT left_ankle
			{
				OFFSET	-11.7	-411.3	35.4
				CHANNELS 3  Xrotation Yrotation Zrotation
				JOINT left_toes
				{
					OFFSET	0	-60	-88.6
					CHANNELS 3  Xrotation Yrotation Zrotation
					JOINT left_foot_ee
					{
						OFFSET	-22.5	-16.5	-42.2
						CHANNELS 3  Xrotation Yrotation Zrotation
						End Site
						{
							OFFSET	1	0	0
						}
					}
				}
			}
		}
	}
	JOINT right_hip
	{
		OFFSET	82.8	-127.5	0.300001
		CHANNELS 3  Xrotation Yrotation Zrotation
		JOINT right_knee
		{
			OFFSET	28.2	-396.7	2.2
			CHANNELS 3  Xrotation Yrotation Zrotation
			JOINT right_ankle
			{
				OFFSET	11.7	-411.3	35.4
				CHANNELS 3  Xrotation Yrotation Zrotation
				JOINT right_toes
				{
					OFFSET	0	-60	-88.6
					CHANNELS 3  Xrotation Yrotation Zrotation
					JOINT right_foot_ee
					{
						OFFSET	22.5	-16.5	-42.2
						CHANNELS 3  Xrotation Yrotation Zrotation
						End Site
						{
							OFFSET	1	0	0
						}
					}
				}
			}
		}
	}
}
MOTION
Frames: 9
Frame Time: 0.02
465.457509164 718.461 -1201.95943213 -171.994662197 -41.9798442105 -171.024655244 2.34972 -0.242208 -1.2002 2.3505 -0.165351 -1.21318 2.35393 0.043096 -1.22363 2.35187 -0.15068 -1.21509 -8.17337 12.2806 -2.14791 -8.22761 24.4562 0.628377 -0.0 0.0 -0.0 6.77697 18.75 12.5066 -73.5085 -74.5188 -2.19706 0.50045 -13.9236 0.0611091 37.5851 -0.229653 -4.71077 -2.43437 11.0961 -10.9768 -0.0 0.0 -0.0 8.73391 9.54385 -17.0971 -64.52 66.0786 -36.5915 0.437783 12.2362 -0.0469254 7.62372 -0.20556 0.951433 -6.02967 16.1248 54.5955 0.0 0.0 0.0 18.4928 13.3168 -4.74322 -26.7546 0.154627 4.06571 24.506 7.65892 -3.27371 7.05305 -0.0 -0.0 -0.0 0.0 -0.0 16.1458 -10.835 5.62838 -16.7482 -0.32018 -2.54109 1.43488 -29.0523 0.223679 40.1765 -0.0 -0.0 0.0 0.0 0.0 
465.320388558 718.461 -1199.30692311 -172.239720417 -39.9411350963 -171.398422714 2.34972 -0.242208 -1.2002 2.3505 -0.165351 -1.21318 2.35393 0.043096 -1.22363 2.35187 -0.15068 -1.21509 -8.17337 12.2806 -2.14791 -8.22761 24.4562 0.628377 -0.0 0.0 -0.0 6.77697 18.75 12.5066 -73.5085 -74.5188 -2.19706 0.50045 -13.9236 0.0611091 37.5851 -0.229653 -4.71077 -2.43437 11.0961 -10.9768 -0.0 0.0 -0.0 8.73391 9.54385 -17.0971 -64.52 66.0786 -36.5915 0.437783 12.2362 -0.0469254 7.62372 -0.20556 0.951433 -6.02967 16.1248 54.5955 0.0 0.0 0.0 18.4928 13.3168 -4.74322 -26.7546 0.154627 4.06571 24.506 7.65892 -3.27371 7.05305 -0.0 -0.0 -0.0 0.0 -0.0 16.1458 -10.835 5.62838 -16.7482 -0.32018 -2.54109 1.43488 -29.0523 0.223679 40.1765 -0.0 -0.0 0.0 0.0 0.0 
471.203516678 722.763 -1190.09398986 -172.204348297 -39.8486539667 -171.304494343 2.40433 -0.190191 -1.26975 2.40522 -0.109015 -1.27928 2.40753 0.108658 -1.27931 2.40526 -0.0947311 -1.28041 -9.58189 12.827 -2.72432 -9.74949 25.9624 0.529047 -0.0 0.0 -0.0 7.0648 17.2618 13.0715 -75.0611 -72.1226 -3.23049 0.64562 -17.7355 0.10073 37.6616 -0.233258 -4.71987 -2.82737 10.5542 -13.828 -0.0 0.0 -0.0 8.2779 8.00393 -16.1546 -63.0885 66.6927 -39.2867 0.466286 13.0065 -0.0531538 7.05445 -0.194605 0.87954 -5.99305 13.0001 52.626 0.0 0.0 0.0 18.2179 15.9816 -5.91482 -25.5685 0.188138 3.88677 19.8113 6.23288 -2.70761 6.45666 -0.0 -0.0 -0.0 0.0 -0.0 16.7573 -5.22804 4.40219 -18.921 -0.306917 -2.87419 3.49627 -26.3582 0.533473 40.2498 -0.0 -0.0 0.0 0.0 0.0 
487.391445689 722.965 -1171.01626849 -171.480509817 -43.3313400616 -169.412550941 2.73918 -0.316356 -1.52574 2.74044 -0.21864 -1.54277 2.74606 0.0358887 -1.55777 2.74274 -0.210553 -1.5439 -10.2296 13.4553 0.626016 -10.4594 24.9554 4.10419 -0.0 0.0 -0.0 7.8757 15.5269 14.5424 -75.3334 -69.3455 -4.68807 0.745363 -20.2657 0.133212 36.1871 -0.165938 -4.54377 -4.08379 10.898 -22.1128 -0.0 0.0 -0.0 7.76039 8.6946 -15.0417 -56.7414 66.3323 -50.4399 0.485537 13.5241 -0.0575712 11.0659 -0.256535 1.38811 -5.81951 10.1439 49.2491 0.0 0.0 0.0 15.6724 18.4146 -7.58553 -21.9494 0.267386 3.33713 19.5991 2.32731 -2.69039 4.61127 -0.0 -0.0 -0.0 0.0 -0.0 23.5682 3.00381 0.797824 -31.1893 0.00332075 -4.7278 10.6272 -26.4872 1.59056 40.1404 -0.0 -0.0 0.0 0.0 0.0 
506.052288951 727.461 -1174.90675578 -173.226280514 -42.4059092819 -169.871388047 2.32649 -0.0246111 -1.68235 2.32806 0.0824757 -1.68051 2.32538 0.367632 -1.64189 2.32163 0.103751 -1.67933 -11.355 11.96 0.628191 -11.5966 22.232 3.92433 -0.0 0.0 -0.0 9.94342 11.6594 18.5632 -67.8883 -65.517 1.26513 0.707548 -19.3155 0.120408 32.2484 -0.00859547 -4.06562 -5.55753 12.4579 -31.714 -0.0 0.0 -0.0 8.90576 12.5983 -17.3799 -55.5888 64.2098 -52.3756 0.490961 13.6696 -0.0588462 18.4787 -0.276859 2.33404 -5.5525 1.33856 41.3341 0.0 0.0 0.0 12.2257 23.3191 -7.45195 -19.687 0.299232 2.99146 24.698 -3.42259 -3.34734 4.12431 -0.0 -0.0 -0.0 0.0 -0.0 32.0642 11.5538 -3.29729 -32.1526 0.0443852 -4.86992 -0.990664 -25.2106 -0.151755 36.9079 -0.0 -0.0 0.0 0.0 0.0 
512.182078794 729.427 -1179.44112584 -172.752128943 -42.5753318862 -168.949523181 2.06752 0.0258545 -1.64642 2.06902 0.130553 -1.64144 2.06511 0.415606 -1.59332 2.0616 0.158791 -1.63895 -11.1087 11.6583 0.674628 -11.3226 21.6083 3.83188 -0.0 0.0 -0.0 10.1043 11.1521 18.9194 -66.2829 -64.5877 1.45041 0.702469 -19.187 0.118734 30.9086 0.0373801 -3.90068 -5.97496 12.4396 -34.9574 -0.0 0.0 -0.0 9.47137 13.5074 -18.5844 -57.285 63.0693 -50.2033 0.535177 14.8483 -0.0697375 19.9882 -0.265994 2.52654 -5.47878 -1.04245 39.1266 0.0 0.0 0.0 12.3399 23.9977 -7.69887 -19.2673 0.303637 2.92722 25.5403 -4.32253 -3.45539 3.70538 -0.0 -0.0 -0.0 0.0 -0.0 33.519 13.0284 -4.26361 -29.6898 -0.0558231 -4.50529 -5.2978 -24.888 -0.816789 35.4149 -0.0 -0.0 0.0 0.0 0.0 
520.215442779 728.737 -1181.2262995 -172.163992514 -45.0888994698 -168.448466239 1.98588 0.0635427 -1.63935 1.98736 0.167716 -1.63199 1.98243 0.452833 -1.57686 1.97901 0.198148 -1.62857 -11.2678 11.2469 0.497337 -11.4765 20.9581 3.57436 -0.0 0.0 -0.0 10.0589 12.0867 18.7221 -65.4223 -64.7963 1.40423 0.704564 -19.2401 0.119423 29.6118 0.0781896 -3.74008 -6.22439 12.1777 -37.1731 -0.0 0.0 -0.0 9.3511 14.0917 -18.2968 -57.3178 62.811 -51.0464 0.53873 14.9425 -0.0706509 20.9065 -0.256906 2.64348 -5.46967 -2.63309 37.9873 0.0 0.0 0.0 11.9484 24.8247 -7.65994 -18.9882 0.306306 2.88448 25.1374 -4.63413 -3.41217 3.64935 -0.0 -0.0 -0.0 0.0 -0.0 34.8565 13.7462 -5.4848 -27.9343 -0.117627 -4.24297 -10.3197 -24.8034 -1.6021 33.4034 -0.0 -0.0 0.0 0.0 0.0 
549.654641479 721.804 -1184.97374872 -172.262876719 -48.5957083273 -167.724464178 1.66243 -0.174564 -2.09357 1.66487 -0.0410208 -2.10043 1.66646 0.341357 -2.07292 1.66046 0.00976853 -2.10081 -11.45 10.5442 0.979597 -11.6316 19.3282 3.86631 -0.0 0.0 -0.0 8.97533 12.7702 16.6979 -67.753 -67.3083 0.022946 0.752995 -20.4561 0.135867 29.065 0.0943045 -3.67209 -6.42407 12.747 -38.34 -0.0 0.0 -0.0 9.63222 15.1529 -18.8706 -60.7854 60.5118 -47.7414 0.537244 14.9031 -0.0702681 22.9151 -0.230499 2.89867 -5.33491 -4.47955 35.617 0.0 0.0 0.0 9.90461 26.3429 -7.78781 -19.114 0.305129 2.90375 27.9267 -5.34354 -3.73971 3.80641 -0.0 -0.0 -0.0 0.0 -0.0 37.1254 15.2632 -6.62531 -23.9461 -0.22796 -3.64098 -15.3059 -22.9619 -2.36757 30.8117 -0.0 -0.0 0.0 0.0 0.0 
568.300882376 714.418 -1188.70176555 -170.263124763 -52.7108219782 -166.143404738 1.62471 -0.505744 -2.16759 1.62725 -0.366823 -2.19536 1.64163 0.0389705 -2.22544 1.63486 -0.312899 -2.20369 -12.1765 9.52624 0.43101 -12.3565 17.8034 3.16404 -0.0 0.0 -0.0 8.51096 16.7793 15.4763 -62.4527 -72.2929 0.279336 0.913134 -24.3388 0.19692 25.8095 0.176752 -3.26445 -7.11046 16.4052 -40.7498 -0.0 0.0 -0.0 9.05313 16.5847 -17.5176 -58.8935 62.6851 -51.1659 0.475727 13.2606 -0.0552989 20.8098 -0.257951 2.63117 -5.5584 -4.83065 37.2299 0.0 0.0 0.0 9.47066 30.0966 -7.57786 -18.6873 0.30895 2.83839 31.2426 -7.83093 -4.13872 1.99221 -0.0 -0.0 -0.0 0.0 -0.0 38.5144 16.4021 -6.27589 -18.5872 -0.309775 -2.82306 -17.1533 -14.3382 -2.58765 24.2286 -0.0 -0.0 0.0 0.0 0.0 
